<?xml version="1.0" encoding="utf-8"?>
<!-- Generator: Adobe Illustrator 14.0.0, SVG Export Plug-In . SVG Version: 6.00 Build 43363)  -->
<!DOCTYPE svg PUBLIC "-//W3C//DTD SVG 1.1//EN" "http://www.w3.org/Graphics/SVG/1.1/DTD/svg11.dtd">
<svg version="1.1" id="Laag_1" xmlns="http://www.w3.org/2000/svg" xmlns:xlink="http://www.w3.org/1999/xlink" x="0px" y="0px"
	 width="500px" height="100px" viewBox="0 0 500 100" enable-background="new 0 0 500 100" xml:space="preserve">
<path fill="#201916" d="M36.383,37.793l7.145-26.708L32.895,5.472h52.82l4.508,9.952L81.037,11h-23.22l-6.379,23.816h22.795
	l5.189-4.083l-3.998,14.8l-2.211-5.614h-23.22c0,0-9.782,42.869-44.825,56.903C5.167,96.822,25.411,81.087,36.383,37.793z"/>
<polygon fill="#201916" points="95.752,5.472 113.104,5.472 109.191,8.449 99.58,45.193 103.407,48.595 85.715,48.595 
	89.628,45.618 99.41,8.534 "/>
<path fill="#201916" d="M143.128,14.573c-1.186,10.376-14.629,13.269-14.629,13.269l6.549,14.29
	c4.338,9.187,15.991,6.464,15.991,6.464c-7.485-3.232-13.779-20.244-13.779-20.244c0.851-0.085,16.756-4.763,15.565-14.374
	c-1.191-9.611-17.186-8.506-17.186-8.506h-17.352l3.658,3.062l-9.782,37.084l-3.913,2.977h17.692l-3.828-3.402l9.611-36.744h5.363
	C137.089,8.449,143.809,8.619,143.128,14.573z"/>
<polygon fill="#201916" points="193.312,15.083 190.419,5.472 162.925,5.472 166.583,8.534 156.801,45.618 152.889,48.595 
	187.188,48.595 190.165,39.579 180.979,45.193 166.752,45.193 171.197,28.204 178.512,28.204 180.638,33.03 183.53,21.377 
	179.277,25.327 171.949,25.327 176.364,8.449 184.041,8.449 "/>
<polygon fill="#201916" points="247.578,15.083 244.686,5.472 217.191,5.472 220.849,8.534 211.067,45.618 207.155,48.595 
	241.454,48.595 244.431,39.579 235.245,45.193 221.019,45.193 225.463,28.204 232.778,28.204 234.904,33.03 237.796,21.377 
	233.543,25.327 226.215,25.327 230.63,8.449 238.307,8.449 "/>
<polygon fill="#201916" points="431.619,15.083 428.727,5.472 401.232,5.472 404.89,8.534 395.108,45.618 391.195,48.595 
	425.495,48.595 428.472,39.579 419.285,45.193 405.06,45.193 409.504,28.204 416.819,28.204 418.945,33.03 421.837,21.377 
	417.585,25.327 410.257,25.327 414.671,8.449 422.348,8.449 "/>
<path fill="#201916" d="M298.1,8.703"/>
<polygon fill="#201916" points="262.474,15.534 254.716,45.193 258.543,48.595 246.266,48.595 250.178,45.618 259.96,8.534 
	256.303,5.472 271.479,5.472 276.837,36.262 298.1,5.641 311.793,5.641 307.881,8.618 298.27,45.362 302.097,48.764 284.405,48.764 
	288.317,45.787 296.473,14.869 268.586,55.06 "/>
<path fill="#201916" d="M264.327,8.449"/>
<polygon fill="#201916" points="445.693,15.534 437.936,45.193 441.764,48.595 429.486,48.595 433.398,45.618 443.181,8.533 
	439.522,5.472 454.699,5.472 460.058,36.262 481.319,5.641 495.014,5.641 491.101,8.618 481.489,45.362 485.317,48.764 
	467.625,48.764 471.538,45.787 479.693,14.869 451.807,55.06 "/>
<path fill="#201916" d="M352.097,13.978c0.886-9.645-17.185-8.506-17.185-8.506h-17.352l3.657,3.062l-9.781,37.084l-3.913,2.977
	h24.005c0,0,18.116-0.765,19.223-13.779c0,0,1.531-7.825-12.333-9.952C337.572,24.735,351.261,23.079,352.097,13.978z
	 M342.401,14.573c-2.112,8.081-12.575,11.397-12.575,11.397s10.974,0.68,11.144,7.74c0,0-1.313,14.204-19.582,11.482l9.611-36.744
	h5.363C336.362,8.449,343.917,8.775,342.401,14.573z"/>
<polygon fill="#201916" points="374.973,8.449 365.36,45.193 379.587,45.193 388.772,39.579 385.796,48.595 351.497,48.595 
	355.409,45.618 365.191,8.534 361.533,5.472 379.16,5.472 "/>
</svg>
